pedal_clip_forces_x_-0.09_y_-0.05.mot
version=1
nRows=125
nColumns=4
inDegrees=yes
endheader
time	PedalClip_calcn_r_Fx	PedalClip_calcn_r_Fy	PedalClip_calcn_r_Fz
0.23474578	-231.497865900039	369.558127098199	0
0.234893	-232.011253028776	370.52440853617	0
0.23504007	-232.525275587459	371.492362747548	0
0.23518734	-233.039936610041	372.461996027781	0
0.2353345	-233.555238738448	373.433313953282	0
0.23548183	-234.071184909911	374.406322651828	0
0.23562908	-234.587777699704	375.381027586653	0
0.23577648	-235.105019974057	376.357434764239	0
0.23592382	-235.622914269193	377.335549584313	0
0.23607129	-236.141463409126	378.315377983578	0
0.23621873	-236.660669921307	379.296925352241	0
0.23636628	-237.180536618656	380.280197612359	0
0.23651382	-237.70106605194	381.265200201313	0
0.23666146	-238.222261055396	382.25193908351	0
0.2368091	-238.744124237967	383.240419805347	0
0.23695684	-239.26665852692	384.230648509305	0
0.23710458	-239.789866832511	385.222631330495	0
0.23725242	-240.313752727909	386.21637569133	0
0.23740028	-240.838320222726	387.211889910922	0
0.23754822	-241.363574366614	388.209184350925	0
0.2376962	-241.889520949115	389.208270866754	0
0.23784426	-242.416166920538	390.209163588378	0
0.23799235	-242.943519968826	391.21187811735	0
0.23814053	-243.471588749099	392.216431932733	0
0.23828876	-244.000382354576	393.222843378961	0
0.23843706	-244.529910391912	394.231131781546	0
0.23858542	-245.060182394161	395.241316329527	0
0.23873386	-245.591207800035	396.253416019544	0
0.23888236	-246.122995368875	397.267448549871	0
0.23903094	-246.655553127114	398.283430210566	0
0.23917959	-247.188887843374	399.301374892814	0
0.23932832	-247.723004998522	400.321294022276	0
0.23947712	-248.257908366617	401.343195759843	0
0.239626	-248.793600048384	402.367085044021	0
0.23977496	-249.33008018249	403.392963023699	0
0.23992401	-249.867347057802	404.420827237928	0
0.24007314	-250.40539695208	405.450671280165	0
0.24022236	-250.944224314328	406.482485107694	0
0.24037166	-251.48382171317	407.51625491551	0
0.24052106	-252.024180071157	408.551963553939	0
0.24067055	-252.56528869508	409.589590573612	0
0.24082013	-253.107135534419	410.629112711523	0
0.24096981	-253.649707260782	411.670504056728	0
0.24111959	-254.192989519777	412.713736555199	0
0.24126947	-254.736967030587	413.758780246815	0
0.24141946	-255.281623807021	414.805603741238	0
0.24156955	-255.82694326855	415.854174499152	0
0.24171975	-256.372908420513	416.904459238788	0
0.24187006	-256.919501991017	417.956424257625	0
0.24202049	-257.466706539639	419.010035672374	0
0.24217103	-258.014504656711	420.065259801707	0
0.24232169	-258.562878954739	421.12206309267	0
0.24247247	-259.11181239304	422.180412595339	0
0.24262337	-259.661288062668	423.24027522763	0
0.2427744	-260.211289849341	424.301618411724	0
0.24292556	-260.76180229961	425.364408126423	0
0.24307685	-261.312813242369	426.428611528893	0
0.24322828	-261.86431839963	427.494198362012	0
0.24337984	-262.41632116878	428.561149106195	0
0.24353155	-262.968829657167	429.629466351507	0
0.2436834	-263.521853788185	430.699167451932	0
0.24383539	-264.075414185611	431.770301607554	0
0.24398754	-264.629539623398	432.842941539901	0
0.24413983	-265.184261899229	433.917170230734	0
0.24429229	-265.739611578334	434.993070693465	0
0.2444449	-266.295613432943	436.070716167011	0
0.24459768	-266.852283695657	437.150163439085	0
0.24475062	-267.409627503827	438.231445075833	0
0.24490373	-267.967640199407	439.314570059308	0
0.24505702	-268.526309873559	440.39952661787	0
0.24521048	-269.085619870808	441.486288029228	0
0.24536412	-269.645555910344	442.574829712773	0
0.24551795	-270.206124640983	443.665175101873	0
0.24567196	-270.767350168639	444.757395133916	0
0.24582617	-271.329258304935	445.851567058456	0
0.24598057	-271.891894364886	446.947793869974	0
0.24613516	-272.455304867946	448.046175935814	0
0.24628997	-273.019505041777	449.146762648491	0
0.24644497	-273.5844700142	450.249527061471	0
0.24660019	-274.150152822629	451.35438057394	0
0.24675561	-274.716519691884	452.461266403932	0
0.24691126	-275.283529289052	453.570116501688	0
0.24706712	-275.851178114356	454.680916493208	0
0.24722323	-276.419486373758	455.793694802173	0
0.24737955	-276.988471893199	456.908454466169	0
0.24753616	-277.55807943161	458.025042029947	0
0.24769296	-278.128213007214	459.143226627677	0
0.2478501	-278.698794288485	460.262821607148	0
0.24800739	-279.269713405508	461.383582061138	0
0.24816512	-279.840841186012	462.505228814353	0
0.24832287	-280.41205162528	463.627501269406	0
0.24848128	-280.983253901834	464.750236270238	0
0.24863943	-281.554430734348	465.873415508695	0
0.24879869	-282.125552610269	466.997014329359	0
0.24895707	-282.696577879991	468.120979376719	0
0.24911752	-283.267445979717	469.24517717831	0
0.24927577	-283.838085826527	470.369414593876	0
0.24943816	-284.408424423774	471.493474837068	0
0.24959578	-284.978407597722	472.617181799836	0
0.24976138	-285.548048639075	473.740525933441	0
0.24991762	-286.11740545811	474.863594715216	0
0.25008918	-286.686530812614	475.986436087565	0
0.25024304	-287.255377749539	477.108885644377	0
0.25042749	-287.82381416765	478.230616329816	0
0.25057845	-288.391659293739	479.351228197959	0
0.25079332	-288.958712684595	480.470318468045	0
0.2509431	-289.524786163137	481.587527263231	0
0.25120187	-290.089733112511	482.702597886104	0
0.2512355	-290.653401094246	483.815244542281	0
0.25129403	-291.215633686411	484.925161262006	0
0.25145502	-291.776280231526	486.032051334883	0
0.2516223	-292.335202050675	487.135645156064	0
0.25178389	-292.892273670697	488.235704776233	0
0.25195767	-293.447384071297	489.332023458329	0
0.252117	-294.00042696951	490.424405994116	0
0.25230341	-294.551273965375	491.512625257936	0
0.25245827	-295.099781536174	492.596385823584	0
0.25268627	-295.645790125077	493.675348930028	0
0.25283938	-296.189139391456	494.749180369693	0
0.25314484	-296.729680665277	495.817551450235	0
0.25317538	-297.267313669472	496.88025913238	0
0.25320593	-297.801997138541	497.937254619192	0
0.25335866	-298.333734956965	498.988598209149	0
0.25341375	-298.86253224039	500.034354275224	0
0.25357187	-299.388367970699	501.074556533927	0
